<svg width="82" height="188" viewBox="0 0 82 188" fill="none" xmlns="http://www.w3.org/2000/svg">
<path d="M46.5 6C46.5 2.96243 44.0376 0.5 41 0.5C37.9624 0.5 35.5 2.96243 35.5 6L46.5 6ZM37.1109 185.889C39.2588 188.037 42.7412 188.037 44.8891 185.889L79.8909 150.887C82.0388 148.739 82.0388 145.257 79.8909 143.109C77.743 140.961 74.2606 140.961 72.1127 143.109L41 174.222L9.8873 143.109C7.73941 140.961 4.257 140.961 2.10912 143.109C-0.0387627 145.257 -0.0387628 148.739 2.10912 150.887L37.1109 185.889ZM35.5 6L35.5 182L46.5 182L46.5 6L35.5 6Z" fill="#3B9545"/>
</svg>
