<svg width="65" height="78" viewBox="0 0 65 78" fill="none" xmlns="http://www.w3.org/2000/svg">
<path fill-rule="evenodd" clip-rule="evenodd" d="M42.25 0H9.75C7.16651 0.00771579 4.69104 1.03742 2.86423 2.86423C1.03742 4.69104 0.00771579 7.16651 0 9.75L0 55.2175C0.00771579 57.801 1.03742 60.2765 2.86423 62.1033C4.69104 63.9301 7.16651 64.9598 9.75 64.9675H42.25C44.8335 64.9598 47.309 63.9301 49.1358 62.1033C50.9626 60.2765 51.9923 57.801 52 55.2175V9.75C51.9923 7.16651 50.9626 4.69104 49.1358 2.86423C47.309 1.03742 44.8335 0.00771579 42.25 0ZM45.5 55.2175C45.4866 56.0753 45.1399 56.8942 44.5333 57.5008C43.9267 58.1074 43.1078 58.4541 42.25 58.4675H9.75C8.89223 58.4541 8.07334 58.1074 7.46673 57.5008C6.86012 56.8942 6.5134 56.0753 6.5 55.2175V9.75C6.5134 8.89223 6.86012 8.07334 7.46673 7.46673C8.07334 6.86012 8.89223 6.51341 9.75 6.5H42.25C44.0342 6.52925 45.4707 7.96575 45.5 9.75V55.2175Z" fill="#1D4923"/>
<path fill-rule="evenodd" clip-rule="evenodd" d="M65 22.75V68.25C64.9923 70.8335 63.9626 73.309 62.1358 75.1358C60.309 76.9626 57.8335 77.9923 55.25 78H16.25C15.388 78 14.5614 77.6576 13.9519 77.0481C13.3424 76.4386 13 75.612 13 74.75C13 73.8881 13.3424 73.0614 13.9519 72.4519C14.5614 71.8424 15.388 71.5 16.25 71.5H55.25C56.1078 71.4866 56.9267 71.1399 57.5333 70.5333C58.1399 69.9267 58.4866 69.1078 58.5 68.25V22.75C58.5 21.888 58.8424 21.0614 59.4519 20.4519C60.0614 19.8424 60.888 19.5 61.75 19.5C62.6119 19.5 63.4386 19.8424 64.0481 20.4519C64.6576 21.0614 65 21.888 65 22.75Z" fill="#1D4923"/>
<path d="M26.0005 52.0001C27.7954 52.0001 29.2505 50.545 29.2505 48.7501C29.2505 46.9551 27.7954 45.5001 26.0005 45.5001C24.2056 45.5001 22.7505 46.9551 22.7505 48.7501C22.7505 50.545 24.2056 52.0001 26.0005 52.0001Z" fill="#1D4923"/>
<path fill-rule="evenodd" clip-rule="evenodd" d="M39 26C39.0023 28.8815 38.0453 31.6818 36.2799 33.9592C34.5145 36.2366 32.0411 37.8615 29.25 38.5775V39C29.25 39.862 28.9076 40.6886 28.2981 41.2981C27.6886 41.9076 26.862 42.25 26 42.25C25.138 42.25 24.3114 41.9076 23.7019 41.2981C23.0924 40.6886 22.75 39.862 22.75 39V35.75C22.75 34.888 23.0924 34.0614 23.7019 33.4519C24.3114 32.8424 25.138 32.5 26 32.5C27.2856 32.5 28.5423 32.1188 29.6112 31.4046C30.6801 30.6903 31.5132 29.6752 32.0052 28.4874C32.4972 27.2997 32.6259 25.9928 32.3751 24.7319C32.1243 23.471 31.5052 22.3128 30.5962 21.4038C29.6872 20.4948 28.529 19.8757 27.2681 19.6249C26.0072 19.3741 24.7003 19.5028 23.5126 19.9948C22.3248 20.4868 21.3097 21.3199 20.5954 22.3888C19.8812 23.4577 19.5 24.7144 19.5 26C19.5 26.862 19.1576 27.6886 18.5481 28.2981C17.9386 28.9076 17.112 29.25 16.25 29.25C15.388 29.25 14.5614 28.9076 13.9519 28.2981C13.3424 27.6886 13 26.862 13 26C13 22.5522 14.3696 19.2456 16.8076 16.8076C19.2456 14.3696 22.5522 13 26 13C29.4478 13 32.7544 14.3696 35.1924 16.8076C37.6304 19.2456 39 22.5522 39 26Z" fill="#1D4923"/>
</svg>
