<svg width="82" height="188" viewBox="0 0 82 188" fill="none" xmlns="http://www.w3.org/2000/svg">
<path d="M35.5 182C35.5 185.038 37.9624 187.5 41 187.5C44.0376 187.5 46.5 185.038 46.5 182L35.5 182ZM44.8891 2.11092C42.7412 -0.036972 39.2588 -0.0369721 37.1109 2.11092L2.10913 37.1127C-0.0387556 39.2606 -0.0387557 42.743 2.10913 44.8909C4.25701 47.0388 7.73942 47.0388 9.8873 44.8909L41 13.7782L72.1127 44.8909C74.2606 47.0388 77.743 47.0388 79.8909 44.8909C82.0388 42.743 82.0388 39.2606 79.8909 37.1127L44.8891 2.11092ZM46.5 182L46.5 6L35.5 6L35.5 182L46.5 182Z" fill="#3B9545"/>
</svg>
