<svg width="121" height="91" viewBox="0 0 121 91" fill="none" xmlns="http://www.w3.org/2000/svg">
<g clip-path="url(#clip0_145_160)">
<path d="M73.9842 61.5709C73.9842 61.5709 61.1057 81.3412 101.285 90.7386C117.815 59.4654 88.305 50.9581 88.305 50.9581L73.9842 61.5709Z" fill="#7CA941" stroke="black" stroke-width="0.84" stroke-miterlimit="10"/>
<path d="M101.5 90.5787L79.7964 57.2639" stroke="black" stroke-width="0.94" stroke-miterlimit="10"/>
<path d="M91.4736 87.8975L95.0337 79.774L104.942 82.0075" stroke="black" stroke-width="0.84" stroke-miterlimit="10"/>
<path d="M83.4688 84.3529L90.6479 73.9214L106.079 71.5867" stroke="black" stroke-width="0.84" stroke-miterlimit="10"/>
<path d="M76.0322 78.6547L86.4927 66.9226L103.382 62.3971" stroke="black" stroke-width="0.84" stroke-miterlimit="10"/>
<path d="M72.1128 70.414L82.4445 60.8406L96.2077 54.9026" stroke="black" stroke-width="0.94" stroke-miterlimit="10"/>
<path d="M96.3957 68.7349C109.86 68.7349 120.775 59.8787 120.775 48.954C120.775 38.0292 109.86 29.173 96.3957 29.173C82.9315 29.173 72.0166 38.0292 72.0166 48.954C72.0166 59.8787 82.9315 68.7349 96.3957 68.7349Z" fill="#384F74" stroke="black" stroke-width="0.84" stroke-miterlimit="10"/>
<path d="M102.084 45.1267C97.1301 43.8315 91.4362 40.2921 91.5702 45.9796C91.7042 51.6671 92.2779 55.4303 94.0204 55.0305C95.7629 54.6308 104.738 54.5188 104.127 52.2854C103.516 50.052 102.09 45.1267 102.09 45.1267H102.084Z" fill="#33374B" stroke="black" stroke-width="0.84" stroke-miterlimit="10"/>
<path d="M97.109 43.2451C93.4417 46.1662 87.4045 48.4795 92.5356 51.2673C97.6666 54.0551 101.302 55.5529 101.833 54.0924C102.363 52.6319 106.819 46.0969 104.519 45.4039C102.219 44.711 97.1144 43.2451 97.1144 43.2451H97.109Z" fill="#33374B" stroke="black" stroke-width="0.8" stroke-miterlimit="10"/>
<path d="M100.765 45.5745C97.8055 44.9082 94.3581 42.9253 94.5725 46.2834C94.787 49.6416 95.2159 51.8537 96.2346 51.5871C97.2533 51.3206 102.561 51.0754 102.143 49.7695C101.725 48.4635 100.765 45.5745 100.765 45.5745Z" fill="#33374B" stroke="black" stroke-width="0.5" stroke-miterlimit="10"/>
<path d="M98.3636 48.826C98.8729 48.826 99.2858 48.4537 99.2858 47.9945C99.2858 47.5353 98.8729 47.163 98.3636 47.163C97.8543 47.163 97.4414 47.5353 97.4414 47.9945C97.4414 48.4537 97.8543 48.826 98.3636 48.826Z" fill="black" stroke="black" stroke-width="0.5" stroke-miterlimit="10"/>
<path d="M87.3239 55.3983C87.3239 55.3983 115.778 69.3106 104.674 38.2239C102.862 31.4863 109.982 34.53 112.4 39.743C114.813 44.9615 123.021 70.6112 88.986 64.7425C79.571 60.3929 84.6967 56.0486 87.3239 55.393V55.3983Z" fill="#59789B"/>
<path d="M47.9701 38.8583C47.9701 38.8583 38.1155 12.457 0.33252 44.0341C18.6745 82.1409 47.9701 60.0945 47.9701 60.0945V38.8637V38.8583Z" fill="#7CA941" stroke="black" stroke-miterlimit="10"/>
<path d="M0.33252 44.354L47.9701 47.4776" stroke="black" stroke-width="1.12" stroke-miterlimit="10"/>
<path d="M10.0853 36.7102L15.3718 45.9157L6.13916 53.762" stroke="black" stroke-miterlimit="10"/>
<path d="M19.2212 31.6198L24.1485 45.9158L15.3716 62.296" stroke="black" stroke-miterlimit="10"/>
<path d="M30.0356 28.608L33.8691 46.9551L26.1592 66.2884" stroke="black" stroke-miterlimit="10"/>
<path d="M40.7855 30.7562L42.6299 47.4456L38.5176 64.8066" stroke="black" stroke-width="1.12" stroke-miterlimit="10"/>
<path d="M61.2562 25.7029C61.2562 25.7029 68.2799 3.20877 27.0387 4.96779C19.6343 39.5246 50.3615 39.7751 50.3615 39.7751L61.2562 25.7082V25.7029Z" fill="#7CA941" stroke="black" stroke-width="0.84" stroke-miterlimit="10"/>
<path d="M26.8726 5.18103L56.8384 31.4171" stroke="black" stroke-width="0.94" stroke-miterlimit="10"/>
<path d="M37.2576 5.06372L36.0406 13.8482L25.8911 14.3599" stroke="black" stroke-width="0.84" stroke-miterlimit="10"/>
<path d="M45.9221 6.32703L41.8527 18.299L27.6338 24.6955" stroke="black" stroke-width="0.84" stroke-miterlimit="10"/>
<path d="M54.6349 9.81311L47.7614 23.9173L32.7275 32.819" stroke="black" stroke-width="0.84" stroke-miterlimit="10"/>
<path d="M60.6558 16.6892L53.3158 28.6879L41.6758 38.1013" stroke="black" stroke-width="0.94" stroke-miterlimit="10"/>
<path d="M73.486 42.8454C86.9502 42.8454 97.8651 33.9892 97.8651 23.0644C97.8651 12.1397 86.9502 3.28345 73.486 3.28345C60.0218 3.28345 49.1069 12.1397 49.1069 23.0644C49.1069 33.9892 60.0218 42.8454 73.486 42.8454Z" fill="#384F74" stroke="black" stroke-width="0.84" stroke-miterlimit="10"/>
<path d="M77.2014 1.82293C72.2473 0.895442 66.5533 -1.64181 66.6874 2.43592C66.8214 6.51365 67.3951 9.21081 69.1376 8.9283C70.8801 8.64579 79.8554 8.56051 79.2442 6.9614C78.633 5.36229 77.2068 1.82826 77.2068 1.82826L77.2014 1.82293Z" fill="#33374B" stroke="black" stroke-width="0.71" stroke-miterlimit="10"/>
<path d="M72.2257 0.474325C68.5584 2.56916 62.5212 4.2269 67.6523 6.22579C72.7833 8.22468 76.4184 9.29608 76.9492 8.25133C77.48 7.20658 81.9355 2.51585 79.6354 2.02013C77.3353 1.52441 72.2311 0.468994 72.2311 0.468994L72.2257 0.474325Z" fill="#33374B" stroke="black" stroke-width="0.67" stroke-miterlimit="10"/>
<path d="M75.8877 2.1427C72.9281 1.66297 69.4806 0.239761 69.6951 2.64909C69.9095 5.05841 70.3385 6.64686 71.3572 6.44964C72.3759 6.25241 77.6838 6.08184 77.2656 5.1437C76.8474 4.20555 75.8877 2.13737 75.8877 2.13737V2.1427Z" fill="#33374B" stroke="black" stroke-width="0.42" stroke-miterlimit="10"/>
<path d="M73.4857 4.47745C73.995 4.47745 74.4079 4.21016 74.4079 3.88045C74.4079 3.55073 73.995 3.28345 73.4857 3.28345C72.9764 3.28345 72.5635 3.55073 72.5635 3.88045C72.5635 4.21016 72.9764 4.47745 73.4857 4.47745Z" fill="black" stroke="black" stroke-width="0.42" stroke-miterlimit="10"/>
<path d="M65.5614 11.3642C65.5614 11.3642 80.6864 29.3009 82.3967 8.29927C83.1688 3.96569 87.0881 8.21399 87.1739 11.9399C87.2597 15.6658 85.2008 32.6484 63.9154 17.0731C58.838 11.2789 63.5937 10.7672 65.5614 11.3642Z" fill="#59789B"/>
<path d="M58.511 77.9725C73.7814 77.9725 86.1606 66.8825 86.1606 53.2023C86.1606 39.5221 73.7814 28.4321 58.511 28.4321C43.2405 28.4321 30.8613 39.5221 30.8613 53.2023C30.8613 66.8825 43.2405 77.9725 58.511 77.9725Z" fill="#384F74" stroke="black" stroke-miterlimit="10"/>
<path d="M64.9609 48.4104C59.342 46.7899 52.8866 42.3604 53.0367 49.4818C53.1869 56.6031 53.841 61.3152 55.814 60.8141C57.7871 60.3131 67.9741 60.1745 67.2771 57.376C66.5801 54.5776 64.9663 48.4104 64.9663 48.4104H64.9609Z" fill="#33374B" stroke="black" stroke-miterlimit="10"/>
<path d="M59.3153 46.0543C55.1547 49.711 48.308 52.6053 54.1253 56.1021C59.9426 59.5988 64.071 61.4644 64.6715 59.6414C65.272 57.8184 70.3279 49.6257 67.7169 48.7621C65.1058 47.8986 59.3153 46.0543 59.3153 46.0543Z" fill="#33374B" stroke="black" stroke-width="0.95" stroke-miterlimit="10"/>
<path d="M63.4703 48.9701C60.114 48.1332 56.2 45.6546 56.4466 49.8602C56.6933 54.0659 57.1812 56.8377 58.3339 56.4965C59.4867 56.1554 65.5077 55.8569 65.0359 54.2205C64.5641 52.584 63.4757 48.9701 63.4757 48.9701H63.4703Z" fill="#33374B" stroke="black" stroke-width="0.59" stroke-miterlimit="10"/>
<path d="M60.7467 53.0425C61.3241 53.0425 61.7922 52.5771 61.7922 52.003C61.7922 51.429 61.3241 50.9636 60.7467 50.9636C60.1693 50.9636 59.7012 51.429 59.7012 52.003C59.7012 52.5771 60.1693 53.0425 60.7467 53.0425Z" fill="black" stroke="black" stroke-width="0.59" stroke-miterlimit="10"/>
<path d="M48.2219 61.2671C48.2219 61.2671 80.4986 78.6868 67.9042 39.7644C65.8507 31.3265 73.9253 35.1377 76.665 41.6674C79.4048 48.2024 88.7125 80.3179 50.1092 72.9673C39.4343 67.525 45.2408 62.0773 48.2219 61.2618V61.2671Z" fill="#59789B"/>
</g>
<defs>
<clipPath id="clip0_145_160">
<rect width="121" height="91" fill="white"/>
</clipPath>
</defs>
</svg>
