<svg width="98" height="87" viewBox="0 0 98 87" fill="none" xmlns="http://www.w3.org/2000/svg">
<g clip-path="url(#clip0_145_143)">
<path d="M82.0581 17.2816C85.2322 12.239 91.8405 7.71039 98.0001 8.97267C92.0487 10.5733 87.281 14.1715 82.0581 17.2816Z" fill="black"/>
<path d="M84.4451 18.9343C84.4451 18.9343 80.7897 29.2342 81.1214 32.5591C87.2485 53.1591 66.5063 106.318 9.71092 79.0749C6.38723 85.2888 -3.2391 74.0909 1.71066 68.2024C5.03434 61.8845 -9.21653 10.9572 65.5112 10.9572C76.3083 13.9502 72.3992 16.6049 72.3992 16.6049C72.3992 16.6049 78.1295 10.6253 84.4451 16.2731C90.7608 21.9208 84.4451 18.9343 84.4451 18.9343Z" fill="#FCDC00" stroke="black" stroke-miterlimit="10"/>
<path d="M85.7462 12.8962C85.7462 12.8962 64.7048 14.8091 53.7777 22.4609C42.8505 30.1127 25.9068 19.7281 22.3555 16.1755C29.7313 9.89009 44.0733 4.23584 57.0558 0.878427C72.3799 -1.53553 76.7313 3.32491 85.7462 12.8962Z" fill="#579444" stroke="#020202" stroke-width="0.82" stroke-miterlimit="10"/>
<path d="M74.1489 30.8934C74.1489 30.8934 79.4629 40.1979 74.1489 46.8412V30.8934Z" fill="#FCDC00"/>
<path d="M74.1751 30.8739C77.076 34.882 78.2533 40.803 75.541 45.195C75.3784 45.4617 75.1182 45.8456 74.8971 46.0669C74.6629 46.3401 74.4222 46.6069 74.1751 46.8607L74.123 46.8216C77.8175 42.2149 76.4776 35.6758 74.1751 30.8804V30.8739Z" fill="black"/>
<path d="M83.5995 17.119C84.0664 17.119 84.445 16.7403 84.445 16.2731C84.445 15.806 84.0664 15.4272 83.5995 15.4272C83.1325 15.4272 82.7539 15.806 82.7539 16.2731C82.7539 16.7403 83.1325 17.119 83.5995 17.119Z" fill="#050101" stroke="black" stroke-miterlimit="10"/>
<path d="M91.5089 11.7054C91.5089 11.7054 75.2352 14.3666 62.6103 8.0487C49.9855 1.73077 36.3721 12.2585 36.3721 12.2585" fill="#579444"/>
<path d="M91.5087 11.7054C83.2613 13.2084 74.474 13.0197 66.4672 10.3325L64.7501 9.71437L63.0785 8.97261C56.7108 5.53061 49.2244 6.22682 42.7201 8.97261C40.5151 9.85101 38.3947 10.9636 36.3784 12.2585C43.8323 6.23984 54.701 2.99303 63.6314 7.78841L65.2314 8.51715C65.7713 8.71886 67.1892 9.23288 67.716 9.42808C75.3846 11.8225 83.5019 12.3105 91.5087 11.7054Z" fill="#020202"/>
<path d="M43.787 78.7367C43.787 78.7367 31.8582 82.7708 19.5391 74.6505L43.787 78.7367Z" fill="#FCDC00"/>
<path d="M43.787 78.7367C36.229 81.3068 27.4743 79.9274 20.8529 75.5419C20.4106 75.2491 19.9748 74.9498 19.5391 74.6505C26.8043 78.8668 35.5331 80.578 43.787 78.7367Z" fill="black"/>
</g>
<defs>
<clipPath id="clip0_145_143">
<rect width="98" height="87" fill="white"/>
</clipPath>
</defs>
</svg>
