<svg width="74" height="157" viewBox="0 0 74 157" fill="none" xmlns="http://www.w3.org/2000/svg">
<path d="M30.9366 111.035C28.662 103.728 27.2759 95.9231 28.2355 88.1178C29.0174 80.2768 31.9317 72.9348 34.9882 65.8779C38.2579 58.8923 41.8475 52.1205 44.975 45.2062C48.1381 38.2919 50.5904 31.0924 51.55 23.4296C51.6922 31.1281 49.6664 38.8265 46.8587 45.9903C44.051 53.1897 40.4614 59.9971 37.4049 66.9471C34.2063 73.8258 31.4341 80.9183 30.2613 88.3316C28.9463 95.7449 29.7637 103.408 30.9366 110.999V111.035Z" fill="#525E29"/>
<path d="M30.332 84.5181C30.6164 82.7004 31.5404 80.9896 32.8909 79.6353C34.277 78.2809 36.1962 77.5681 38.0088 77.176C41.6339 76.5345 44.797 75.5722 47.7468 73.612C50.6611 71.7943 53.4333 69.1925 56.9873 67.8382C60.4348 66.4125 64.3442 66.0205 67.8627 66.9828C64.2376 66.9115 60.7546 67.7312 57.6626 69.3351C54.5706 70.9033 52.0472 73.3625 48.8841 75.4296C47.2848 76.4276 45.5789 77.2473 43.7663 77.8176C41.9537 78.3878 40.0346 78.6017 38.3286 78.7799C34.8812 79.0294 31.7892 81.0965 30.3676 84.5537L30.332 84.5181Z" fill="#525E29"/>
<path d="M30.4386 82.8786C30.4386 79.5283 28.9459 76.5345 26.9912 74.004C25.0365 71.5091 22.5486 69.3707 20.0253 67.3035C17.5019 65.2007 14.8719 63.0979 12.7039 60.4605C10.5715 57.8587 8.75896 54.6867 8.65234 51.3008C9.61193 54.5085 11.6022 57.1459 13.8768 59.3913C16.1869 61.6366 18.7814 63.6325 21.3403 65.7353C23.8636 67.8738 26.4581 70.1548 28.3062 73.113C30.1187 75.9642 31.2916 79.564 30.4742 82.8786H30.4386Z" fill="#525E29"/>
<path d="M46.4677 44.1369C46.4677 44.1369 67.2589 34.5496 62.4964 8.17533C61.679 4.32611 62.1766 3.04304 62.6741 0.191775C63.1717 -2.65949 29.6216 26.9581 46.4677 44.1369Z" fill="#525E29"/>
<path d="M49.0977 73.2911C49.0977 73.2911 60.3995 78.5659 69.6045 67.3034C70.9195 65.5927 71.6303 65.3788 72.9808 64.5591C74.3313 63.7394 50.2705 60.2465 49.0977 73.2911Z" fill="#525E29"/>
<path d="M26.1383 71.2597C26.1383 71.2597 28.8394 52.0136 8.11934 45.7408C5.02732 44.9211 4.38759 44.0657 2.57503 42.6401C0.762471 41.2144 6.41339 77.5325 26.1383 71.2953V71.2597Z" fill="#525E29"/>
<path d="M55.708 156.014H5.59603C4.70752 156.014 3.89009 154.018 3.71239 151.202L0.0517244 101.804C-0.232599 97.8834 0.691452 94.1411 1.93537 94.1411H60.3993C61.7143 94.1411 62.6384 98.1685 62.2474 102.196L57.5561 151.594C57.3073 154.232 56.561 156.014 55.708 156.014Z" fill="#EDAA4C"/>
<path d="M47.2495 42.3905C46.2544 40.9292 46.1122 39.0046 46.5387 37.2582C46.9652 35.5118 47.8182 33.9436 48.5645 32.3754C50.1283 29.239 51.9053 26.2452 53.3625 23.0732C54.8907 19.9368 56.028 16.6935 56.6322 13.2719C57.2719 9.88606 57.8405 6.17941 60.1507 3.4707C58.1249 6.39325 57.8406 9.95734 57.3074 13.4145C56.8454 16.9073 55.637 20.2932 54.1799 23.5009C52.6516 26.6729 50.8746 29.7024 49.1687 32.7318C48.3157 34.2644 47.4272 35.7613 46.9652 37.4008C46.4676 39.0046 46.3965 40.858 47.285 42.4261L47.2495 42.3905Z" fill="#424921"/>
<path d="M22.9044 70.0835C23.2598 67.3748 21.0207 65.5215 19.2081 63.9177C17.289 62.2425 15.2987 60.6743 13.4861 58.8923C11.6736 57.0746 10.0743 55.0431 8.86589 52.7977C7.62198 50.6236 6.52022 48.2357 4.42334 46.7388C6.69793 48.0218 7.97738 50.4098 9.25683 52.5839C10.5007 54.7936 12.1356 56.7182 13.9837 58.4646C15.7607 60.2467 17.6799 61.9218 19.5636 63.6325C20.4876 64.4879 21.4472 65.3433 22.1935 66.4482C22.9044 67.5174 23.2953 68.8717 22.9754 70.1192L22.9044 70.0835Z" fill="#424921"/>
<path d="M50.6259 72.2576C50.8747 71.3666 51.5855 70.6894 52.4029 70.2974C53.2203 69.9053 54.1444 69.7628 54.9973 69.5846C56.7388 69.2282 58.5158 68.9787 60.2218 68.551C61.9633 68.1946 63.6337 67.6243 65.1974 66.7689C66.7257 65.9136 68.3961 64.9513 70.2086 65.0225C68.3961 65.1295 66.8678 66.163 65.3396 67.0184C63.8114 67.9451 62.0699 68.5866 60.3284 68.9787C58.5869 69.3707 56.8099 69.5846 55.0329 69.8697C53.3625 70.1548 51.3011 70.4399 50.5903 72.222L50.6259 72.2576Z" fill="#424921"/>
<path d="M9.89228 105.932C9.73678 104.167 8.1842 102.863 6.4245 103.019C4.6648 103.175 3.36434 104.732 3.51984 106.497L6.84538 144.236C7.00088 146.001 8.55346 147.305 10.3132 147.149C12.0729 146.993 13.3733 145.436 13.2178 143.671L9.89228 105.932Z" fill="#E2B07A"/>
</svg>
