<svg width="85" height="97" viewBox="0 0 85 97" fill="none" xmlns="http://www.w3.org/2000/svg">
<g clip-path="url(#clip0_171_114)">
<path d="M44.3096 19.9704C44.3096 19.9704 107.203 5.72727 75.7562 68.3953C44.3096 131.071 9.43575 72.282 2.28483 54.6736C-4.86609 37.0652 8.58113 9.87459 44.3096 19.9704Z" fill="#ED1B24" stroke="black" stroke-miterlimit="10"/>
<path d="M43.2629 38.582C44.0046 38.582 44.6059 36.8136 44.6059 34.6322C44.6059 32.4508 44.0046 30.6824 43.2629 30.6824C42.5212 30.6824 41.9199 32.4508 41.9199 34.6322C41.9199 36.8136 42.5212 38.582 43.2629 38.582Z" fill="white" stroke="black" stroke-miterlimit="10"/>
<path d="M43.2629 55.0054C44.0046 55.0054 44.6059 53.237 44.6059 51.0555C44.6059 48.8741 44.0046 47.1057 43.2629 47.1057C42.5212 47.1057 41.9199 48.8741 41.9199 51.0555C41.9199 53.237 42.5212 55.0054 43.2629 55.0054Z" fill="white" stroke="black" stroke-miterlimit="10"/>
<path d="M43.2629 71.4288C44.0046 71.4288 44.6059 69.6604 44.6059 67.479C44.6059 65.2976 44.0046 63.5292 43.2629 63.5292C42.5212 63.5292 41.9199 65.2976 41.9199 67.479C41.9199 69.6604 42.5212 71.4288 43.2629 71.4288Z" fill="white" stroke="black" stroke-miterlimit="10"/>
<path d="M43.2629 87.8442C44.0046 87.8442 44.6059 86.0758 44.6059 83.8944C44.6059 81.713 44.0046 79.9446 43.2629 79.9446C42.5212 79.9446 41.9199 81.713 41.9199 83.8944C41.9199 86.0758 42.5212 87.8442 43.2629 87.8442Z" fill="white" stroke="black" stroke-miterlimit="10"/>
<path d="M55.5241 29.1972C56.2658 29.1972 56.8671 27.4288 56.8671 25.2473C56.8671 23.0659 56.2658 21.2975 55.5241 21.2975C54.7824 21.2975 54.1812 23.0659 54.1812 25.2473C54.1812 27.4288 54.7824 29.1972 55.5241 29.1972Z" fill="white" stroke="black" stroke-miterlimit="10"/>
<path d="M55.5241 45.6127C56.2658 45.6127 56.8671 43.8443 56.8671 41.6628C56.8671 39.4814 56.2658 37.713 55.5241 37.713C54.7824 37.713 54.1812 39.4814 54.1812 41.6628C54.1812 43.8443 54.7824 45.6127 55.5241 45.6127Z" fill="white" stroke="black" stroke-miterlimit="10"/>
<path d="M55.5241 62.0361C56.2658 62.0361 56.8671 60.2677 56.8671 58.0863C56.8671 55.9049 56.2658 54.1365 55.5241 54.1365C54.7824 54.1365 54.1812 55.9049 54.1812 58.0863C54.1812 60.2677 54.7824 62.0361 55.5241 62.0361Z" fill="white" stroke="black" stroke-miterlimit="10"/>
<path d="M55.5241 78.4595C56.2658 78.4595 56.8671 76.6911 56.8671 74.5096C56.8671 72.3282 56.2658 70.5598 55.5241 70.5598C54.7824 70.5598 54.1812 72.3282 54.1812 74.5096C54.1812 76.6911 54.7824 78.4595 55.5241 78.4595Z" fill="white" stroke="black" stroke-miterlimit="10"/>
<path d="M69.3986 36.5122C70.1403 36.5122 70.7416 34.7438 70.7416 32.5624C70.7416 30.3809 70.1403 28.6125 69.3986 28.6125C68.6569 28.6125 68.0557 30.3809 68.0557 32.5624C68.0557 34.7438 68.6569 36.5122 69.3986 36.5122Z" fill="white" stroke="black" stroke-miterlimit="10"/>
<path d="M69.3986 52.9357C70.1403 52.9357 70.7416 51.1673 70.7416 48.9858C70.7416 46.8044 70.1403 45.036 69.3986 45.036C68.6569 45.036 68.0557 46.8044 68.0557 48.9858C68.0557 51.1673 68.6569 52.9357 69.3986 52.9357Z" fill="white" stroke="black" stroke-miterlimit="10"/>
<path d="M69.3986 69.3591C70.1403 69.3591 70.7416 67.5907 70.7416 65.4093C70.7416 63.2279 70.1403 61.4595 69.3986 61.4595C68.6569 61.4595 68.0557 63.2279 68.0557 65.4093C68.0557 67.5907 68.6569 69.3591 69.3986 69.3591Z" fill="white" stroke="black" stroke-miterlimit="10"/>
<path d="M28.6648 30.3743C29.4065 30.3743 30.0077 28.6059 30.0077 26.4244C30.0077 24.243 29.4065 22.4746 28.6648 22.4746C27.923 22.4746 27.3218 24.243 27.3218 26.4244C27.3218 28.6059 27.923 30.3743 28.6648 30.3743Z" fill="white" stroke="black" stroke-miterlimit="10"/>
<path d="M28.6648 46.7898C29.4065 46.7898 30.0077 45.0214 30.0077 42.84C30.0077 40.6585 29.4065 38.8901 28.6648 38.8901C27.923 38.8901 27.3218 40.6585 27.3218 42.84C27.3218 45.0214 27.923 46.7898 28.6648 46.7898Z" fill="white" stroke="black" stroke-miterlimit="10"/>
<path d="M28.6648 63.2131C29.4065 63.2131 30.0077 61.4447 30.0077 59.2633C30.0077 57.0819 29.4065 55.3135 28.6648 55.3135C27.923 55.3135 27.3218 57.0819 27.3218 59.2633C27.3218 61.4447 27.923 63.2131 28.6648 63.2131Z" fill="white" stroke="black" stroke-miterlimit="10"/>
<path d="M28.6648 79.6365C29.4065 79.6365 30.0077 77.8681 30.0077 75.6866C30.0077 73.5052 29.4065 71.7368 28.6648 71.7368C27.923 71.7368 27.3218 73.5052 27.3218 75.6866C27.3218 77.8681 27.923 79.6365 28.6648 79.6365Z" fill="white" stroke="black" stroke-miterlimit="10"/>
<path d="M16.1159 37.4049C16.8576 37.4049 17.4589 35.6365 17.4589 33.4551C17.4589 31.2736 16.8576 29.5052 16.1159 29.5052C15.3742 29.5052 14.7729 31.2736 14.7729 33.4551C14.7729 35.6365 15.3742 37.4049 16.1159 37.4049Z" fill="white" stroke="black" stroke-miterlimit="10"/>
<path d="M16.1159 53.8284C16.8576 53.8284 17.4589 52.06 17.4589 49.8785C17.4589 47.6971 16.8576 45.9287 16.1159 45.9287C15.3742 45.9287 14.7729 47.6971 14.7729 49.8785C14.7729 52.06 15.3742 53.8284 16.1159 53.8284Z" fill="white" stroke="black" stroke-miterlimit="10"/>
<path d="M16.1159 70.2439C16.8576 70.2439 17.4589 68.4755 17.4589 66.2941C17.4589 64.1126 16.8576 62.3442 16.1159 62.3442C15.3742 62.3442 14.7729 64.1126 14.7729 66.2941C14.7729 68.4755 15.3742 70.2439 16.1159 70.2439Z" fill="white" stroke="black" stroke-miterlimit="10"/>
<path d="M19.9529 25.8635C19.9529 25.8635 -5.77299 33.3761 13.0897 58.7498C13.0636 47.872 5.37198 40.8808 19.9529 25.8635Z" fill="#F26166" stroke="black" stroke-miterlimit="10"/>
<path d="M41.4056 13.9429C41.4056 13.9429 45.9839 0.995374 49.1233 0.481896C52.2627 -0.031582 54.844 2.03813 54.844 2.03813C54.844 2.03813 46.5507 4.88991 45.4083 13.9508C56.2742 9.55071 71.1342 11.8811 73.1399 12.3946C75.1457 12.9081 62.8496 16.2812 62.8496 16.2812C62.8496 16.2812 77.4305 18.6116 81.4332 23.2724C74.8579 25.8635 65.71 24.568 64.8553 23.2724C69.4337 26.6377 70.0005 34.1503 70.0005 34.1503C70.0005 34.1503 53.7016 31.2985 51.9924 24.0545C49.9954 30.785 41.4143 35.193 41.4143 35.193C41.4143 35.193 37.1237 28.976 37.1237 24.3152C30.8361 32.6019 19.4034 31.5671 17.6854 31.5671C17.6854 27.4198 22.2638 24.8366 23.973 23.0196C11.9647 26.3849 5.10156 23.2803 5.10156 23.2803C5.10156 23.2803 13.9617 17.5847 21.1126 16.2891C9.10433 15.515 8.53749 10.5935 8.53749 10.5935C8.53749 10.5935 38.2661 9.55861 41.4143 13.9587L41.4056 13.9429Z" fill="#019245" stroke="black" stroke-miterlimit="10"/>
</g>
<defs>
<clipPath id="clip0_171_114">
<rect width="85" height="97" fill="white"/>
</clipPath>
</defs>
</svg>
