<svg width="162" height="129" viewBox="0 0 162 129" fill="none" xmlns="http://www.w3.org/2000/svg">
<g clip-path="url(#clip0_138_360)">
<path d="M161.31 25.61C153.84 8.10997 137.77 10.58 137.77 10.58V25.61L101.1 58.02L97.74 31.71C96.7 23.56 91.34 16.91 84.14 13.92C78.2 4.32997 71.99 -0.350028 65.64 0.0199724C57.6 0.489972 51.92 8.97997 49.33 13.77C42.42 16.52 37.18 22.63 35.68 30.17C25.07 26.49 7.35001 21.93 1.71001 29.98C-1.94999 35.2 -2.70999 46.47 31.02 83.72L29.33 103.89C28.23 116.93 38.52 128.11 51.6 128.11H84.66C98.13 128.11 108.54 116.29 106.83 102.93L103.44 76.38L143.72 31.57L161.3 25.61H161.31ZM6.59001 33.4C9.50001 29.24 23.64 32.24 35.01 36.26L31.71 75.54C3.61001 43.69 5.27001 35.28 6.59001 33.4ZM57.58 12.2C56.65 12.2 55.73 12.28 54.83 12.39C57.38 8.54997 61.23 4.28997 65.88 4.01997C69.82 3.77997 74.05 6.65997 78.29 12.39C77.39 12.28 76.49 12.2 75.57 12.2H57.59H57.58Z" fill="#594A42"/>
<path d="M50.2307 26.0154C50.4197 23.7922 48.7707 21.8367 46.5474 21.6477C44.3242 21.4587 42.3687 23.1077 42.1797 25.3309L34.8606 111.41C34.6716 113.634 36.3206 115.589 38.5438 115.778C40.767 115.967 42.7225 114.318 42.9116 112.095L50.2307 26.0154Z" fill="#6C5A50"/>
<path d="M137.77 10.58C137.77 10.58 148.01 23.38 161.29 25.6C161.29 25.6 158.57 9.20001 137.77 10.58Z" fill="#42362F"/>
</g>
<defs>
<clipPath id="clip0_138_360">
<rect width="161.31" height="128.11" fill="white"/>
</clipPath>
</defs>
</svg>
